<?xml version="1.0" encoding="UTF-8" standalone="no"?>
<!DOCTYPE svg PUBLIC "-//W3C//DTD SVG 1.1//EN" "http://www.w3.org/Graphics/SVG/1.1/DTD/svg11.dtd">
<svg xmlns="http://www.w3.org/2000/svg" version="1.1" viewBox="0 0 1200 1200">
<path fill="#000000" d="
  M 197.37 464.50
  Q 197.92 473.85 197.10 484.07
  A 0.76 0.73 83.8 0 1 196.59 484.73
  Q 193.49 485.74 190.62 484.29
  A 0.89 0.79 -79.6 0 1 190.17 483.55
  Q 189.76 465.90 190.48 448.25
  A 0.84 0.79 79.9 0 1 190.95 447.53
  Q 193.55 446.37 196.29 447.32
  A 1.54 1.34 80.3 0 1 197.02 447.92
  Q 202.08 455.69 205.81 464.18
  Q 206.20 465.06 206.68 464.20
  L 215.79 447.99
  A 1.38 1.27 4.5 0 1 216.54 447.40
  Q 218.77 446.70 220.88 447.02
  Q 222.75 447.30 222.75 449.19
  L 222.75 483.75
  A 0.79 0.76 78.5 0 1 222.30 484.46
  Q 219.33 485.71 216.22 484.67
  A 0.75 0.70 9.6 0 1 215.72 484.01
  L 215.64 464.60
  Q 215.63 462.60 214.65 464.31
  Q 211.85 469.24 209.27 473.79
  Q 206.38 478.89 203.53 473.65
  Q 200.95 468.91 198.24 464.24
  Q 197.25 462.53 197.37 464.50
  Z"
/>
<rect fill="#000000" x="-3.75" y="-18.95" transform="translate(233.38,466.03) rotate(0.5)" width="7.50" height="37.90" rx="1.49"/>
<path fill="#000000" d="
  M 255.17 474.24
  Q 253.56 476.82 252.30 479.58
  Q 250.51 483.47 249.27 484.23
  Q 246.93 485.69 243.01 484.54
  A 1.18 1.18 -67.7 0 1 242.31 482.86
  L 250.78 466.68
  A 1.51 1.51 -44.2 0 0 250.80 465.29
  L 242.84 449.38
  A 1.47 1.46 71.6 0 1 243.88 447.28
  Q 247.53 446.65 249.61 447.48
  A 1.41 1.30 -1.3 0 1 250.33 448.11
  L 254.81 456.69
  Q 255.13 457.29 255.44 456.71
  L 259.85 448.47
  A 2.79 2.74 -75.6 0 1 262.28 447.00
  L 266.97 447.00
  A 1.21 1.18 -76.5 0 1 268.01 448.74
  L 259.95 464.96
  A 2.23 2.16 45.3 0 0 259.97 466.94
  L 268.43 483.55
  A 0.88 0.87 70.6 0 1 267.83 484.81
  Q 264.45 485.49 261.29 484.37
  A 1.45 1.15 1.0 0 1 260.55 483.76
  L 255.64 474.27
  Q 255.41 473.84 255.17 474.24
  Z"
/>
<path fill="#000000" d="
  M 274.57 484.79
  A 0.93 0.92 1.3 0 1 273.68 483.87
  L 273.81 448.20
  A 0.95 0.93 89.7 0 1 274.73 447.25
  L 295.13 447.03
  A 1.09 1.08 89.7 0 1 296.23 448.13
  L 296.17 453.53
  A 1.13 1.07 0.3 0 1 295.04 454.59
  L 282.14 454.50
  A 0.84 0.79 -0.3 0 0 281.30 455.30
  L 281.38 460.81
  A 0.59 0.53 1.7 0 0 281.94 461.34
  Q 291.89 461.86 293.75 461.50
  Q 296.25 461.02 295.84 465.07
  Q 295.71 466.45 295.91 467.83
  Q 296.14 469.35 293.50 469.00
  Q 291.04 468.68 281.68 469.16
  A 0.59 0.53 -1.7 0 0 281.12 469.69
  L 281.23 476.94
  A 0.58 0.50 0.1 0 0 281.80 477.43
  L 295.24 477.72
  A 0.81 0.80 -10.5 0 1 295.97 478.21
  Q 296.38 479.17 296.36 480.23
  Q 296.34 481.54 296.39 482.26
  Q 296.62 485.32 293.69 485.13
  Q 291.92 485.01 291.80 485.01
  Q 283.46 485.12 274.57 484.79
  Z"
/>
<path fill="#000000" d="
  M 325.63 451.57
  Q 327.77 454.47 328.00 458.75
  Q 328.38 465.90 328.09 471.50
  Q 327.77 477.53 325.66 480.40
  Q 322.61 484.56 316.49 484.78
  Q 310.50 485.00 304.48 485.00
  Q 302.54 485.00 302.49 483.06
  Q 302.07 468.05 302.45 452.64
  Q 302.54 449.18 302.61 448.88
  Q 303.15 446.72 305.86 446.89
  Q 307.58 447.00 307.65 447.00
  Q 311.33 447.00 315.00 447.01
  Q 318.12 447.03 320.92 448.12
  Q 323.95 449.30 325.63 451.57
  Z
  M 317.31 454.69
  Q 315.94 454.32 310.55 454.31
  A 0.52 0.50 -89.4 0 0 310.05 454.82
  Q 309.73 464.57 309.75 474.33
  Q 309.75 474.42 309.66 475.66
  Q 309.52 477.59 311.25 477.33
  Q 312.85 477.08 314.46 477.20
  Q 317.37 477.40 318.87 476.00
  Q 319.96 474.98 320.24 472.17
  Q 320.92 465.38 320.10 458.57
  Q 319.71 455.33 317.31 454.69
  Z"
/>
<path fill="#000000" d="
  M 375.93 464.46
  Q 375.91 462.59 375.04 464.24
  Q 372.24 469.56 369.18 474.48
  Q 366.94 478.08 364.79 474.48
  Q 361.88 469.62 358.43 463.79
  Q 358.07 463.19 358.06 463.89
  L 357.75 483.96
  A 0.94 0.87 -89.1 0 1 356.86 484.89
  L 351.51 484.75
  A 1.24 1.03 -89.3 0 1 350.50 483.50
  L 350.74 449.01
  A 1.85 1.84 -4.7 0 1 352.28 447.21
  Q 355.62 446.64 357.37 447.93
  Q 357.98 448.38 359.92 451.74
  Q 363.37 457.72 366.00 463.50
  Q 366.65 464.93 367.45 463.54
  L 376.30 447.98
  A 1.40 1.26 3.0 0 1 377.03 447.39
  Q 379.64 446.50 381.88 447.15
  A 1.90 1.89 8.2 0 1 383.25 448.97
  L 383.25 483.75
  A 0.80 0.78 77.8 0 1 382.80 484.47
  Q 379.74 485.83 376.64 484.52
  A 0.80 0.78 -79.0 0 1 376.17 483.81
  L 375.93 464.46
  Z"
/>
<path fill="#000000" d="
  M 390.71 484.66
  A 1.84 1.83 12.5 0 1 389.50 482.77
  Q 389.82 479.13 389.70 475.50
  Q 389.44 467.94 390.17 460.44
  Q 390.81 453.75 392.81 451.02
  Q 395.15 447.83 399.36 447.15
  Q 402.91 446.57 406.64 447.09
  Q 411.87 447.82 414.28 452.21
  Q 415.73 454.84 415.99 460.56
  Q 416.39 469.37 416.07 478.20
  Q 416.07 478.29 416.32 481.77
  Q 416.57 485.09 413.21 485.14
  Q 410.91 485.18 409.80 484.86
  Q 407.94 484.32 408.12 481.93
  Q 408.25 480.14 408.25 480.06
  Q 408.25 476.86 408.25 473.40
  A 0.87 0.83 89.7 0 0 407.41 472.53
  L 397.94 472.65
  A 0.56 0.52 -89.4 0 0 397.43 473.19
  L 396.97 483.93
  A 0.76 0.76 81.6 0 1 396.46 484.62
  Q 393.50 485.66 390.71 484.66
  Z
  M 403.46 453.67
  Q 399.81 453.08 398.00 457.00
  Q 397.32 458.47 397.43 464.30
  A 0.56 0.55 -88.3 0 0 397.94 464.85
  Q 401.49 465.10 405.05 465.03
  Q 405.16 465.02 406.94 465.14
  Q 408.85 465.27 408.73 463.61
  Q 408.59 461.51 408.60 461.36
  Q 408.70 458.57 407.38 456.38
  Q 406.00 454.09 403.46 453.67
  Z"
/>
<path fill="#000000" d="
  M 429.56 470.32
  L 429.44 483.44
  A 1.33 1.01 73.0 0 1 429.12 484.31
  Q 428.28 485.18 427.02 485.15
  Q 425.30 485.12 424.97 485.12
  Q 423.54 485.14 422.44 484.27
  A 1.10 0.98 -72.9 0 1 422.06 483.44
  L 422.24 449.32
  Q 422.25 447.13 424.45 447.04
  Q 432.27 446.72 439.00 447.50
  Q 442.02 447.85 444.28 450.01
  Q 446.17 451.83 446.97 454.87
  Q 449.39 464.02 440.61 468.71
  Q 440.59 468.73 439.72 469.07
  Q 438.46 469.55 439.48 471.14
  Q 440.36 472.49 440.83 474.02
  Q 442.16 478.33 446.99 478.95
  A 1.00 0.89 -8.4 0 1 447.74 479.44
  Q 450.04 483.86 445.00 485.00
  Q 442.07 485.66 439.00 483.50
  Q 436.09 481.45 434.44 476.56
  Q 433.88 474.92 431.81 470.94
  Q 431.13 469.62 430.05 469.71
  A 0.62 0.53 88.0 0 0 429.56 470.32
  Z
  M 435.41 454.37
  Q 433.30 454.06 430.47 454.47
  A 1.13 1.13 -4.1 0 0 429.50 455.59
  L 429.50 461.86
  A 0.86 0.86 0.7 0 0 430.34 462.72
  Q 434.60 462.85 437.95 462.06
  A 1.34 1.27 9.3 0 0 438.73 461.53
  Q 440.58 458.79 439.11 456.54
  Q 437.92 454.73 435.41 454.37
  Z"
/>
<path fill="#000000" d="
  M 468.04 455.07
  Q 467.57 466.58 467.71 478.11
  Q 467.77 482.83 467.76 482.88
  Q 467.03 485.69 461.96 484.77
  Q 460.07 484.42 460.07 482.47
  L 460.19 455.31
  A 0.59 0.50 -89.5 0 0 459.70 454.72
  L 453.92 454.57
  A 1.95 1.63 1.0 0 1 452.02 452.92
  L 452.05 448.07
  A 1.12 1.07 -0.0 0 1 453.17 447.00
  L 474.22 447.00
  A 1.72 1.64 -0.3 0 1 475.94 448.62
  L 476.00 452.52
  Q 476.03 454.48 473.94 454.50
  L 468.57 454.55
  A 0.54 0.53 -88.9 0 0 468.04 455.07
  Z"
/>
<rect fill="#000000" x="-3.74" y="-18.95" transform="translate(484.64,466.03) rotate(0.4)" width="7.48" height="37.90" rx="1.56"/>
<path fill="#000000" d="
  M 495.92 484.81
  A 1.81 1.80 8.3 0 1 494.51 482.92
  Q 494.87 477.51 494.73 472.00
  Q 494.58 465.64 495.26 459.33
  Q 495.79 454.41 497.26 451.96
  Q 499.54 448.15 503.86 447.21
  Q 508.89 446.12 513.60 447.56
  Q 517.64 448.79 519.56 452.70
  Q 520.73 455.09 520.96 460.00
  Q 521.40 469.10 521.07 478.21
  Q 521.07 478.29 521.32 481.77
  Q 521.56 485.12 518.14 485.14
  Q 515.89 485.16 514.86 484.90
  Q 512.98 484.41 513.14 482.07
  Q 513.25 480.50 513.25 480.42
  Q 513.25 477.13 513.25 473.25
  A 0.70 0.68 -90.0 0 0 512.57 472.55
  L 503.18 472.52
  A 1.01 1.00 88.4 0 0 502.17 473.60
  Q 502.52 479.50 501.88 484.08
  A 0.76 0.74 86.5 0 1 501.34 484.70
  Q 498.68 485.42 495.92 484.81
  Z
  M 508.45 453.68
  Q 504.81 453.09 503.00 457.00
  Q 502.34 458.41 502.43 464.31
  A 0.55 0.55 1.7 0 0 502.94 464.85
  Q 506.49 465.10 510.05 465.03
  Q 510.14 465.02 511.94 465.14
  Q 513.86 465.27 513.73 463.59
  Q 513.58 461.61 513.59 461.38
  Q 513.69 458.58 512.37 456.38
  Q 510.99 454.08 508.45 453.68
  Z"
/>
<path fill="#000000" d="
  M 535.92 477.63
  L 544.06 477.64
  A 0.72 0.69 81.6 0 1 544.73 478.16
  Q 545.16 479.66 545.00 482.50
  Q 544.84 485.26 542.47 485.10
  Q 541.12 485.02 541.01 485.02
  Q 534.50 485.16 528.05 484.75
  A 0.78 0.78 1.9 0 1 527.31 483.96
  Q 527.59 468.46 527.51 452.97
  Q 527.49 449.00 527.70 448.57
  Q 528.67 446.52 533.17 447.28
  Q 535.06 447.60 535.04 449.44
  L 534.72 476.49
  A 1.20 1.12 0.5 0 0 535.92 477.63
  Z"
/>
<path fill="#000000" d="
  M 585.19 477.82
  L 574.73 477.44
  A 0.59 0.58 9.5 0 0 574.14 477.85
  L 572.40 483.55
  A 2.10 2.06 8.4 0 1 570.40 485.00
  L 566.39 485.00
  Q 564.03 485.00 564.75 482.76
  Q 570.27 465.43 575.81 448.31
  Q 576.32 446.73 578.21 446.80
  Q 579.55 446.85 580.78 446.84
  Q 583.11 446.80 583.94 449.06
  Q 589.91 465.38 594.91 482.03
  Q 596.04 485.81 589.90 484.65
  Q 588.09 484.31 587.41 482.47
  L 585.87 478.28
  A 0.78 0.69 -7.7 0 0 585.19 477.82
  Z
  M 579.19 460.68
  L 576.73 469.03
  A 0.75 0.72 -81.3 0 0 577.41 470.00
  L 582.39 470.00
  A 0.87 0.86 79.6 0 0 583.19 468.82
  L 580.13 460.62
  Q 579.62 459.23 579.19 460.68
  Z"
/>
<path fill="#000000" d="
  M 608.02 470.32
  L 607.81 482.92
  A 2.18 2.00 83.0 0 1 606.38 484.93
  Q 603.92 485.69 600.95 484.45
  A 0.76 0.74 -79.1 0 1 600.49 483.75
  L 600.49 449.24
  Q 600.49 447.00 602.78 447.00
  Q 607.88 447.00 612.50 447.00
  Q 617.76 447.00 621.69 449.31
  Q 624.16 450.77 624.99 454.00
  Q 627.83 465.08 617.72 469.31
  A 0.55 0.53 -21.0 0 0 617.41 469.98
  Q 618.60 473.51 620.06 475.94
  Q 621.74 478.73 625.19 478.81
  A 0.99 0.88 -13.0 0 1 625.96 479.23
  Q 627.68 482.00 625.86 483.72
  Q 624.59 484.92 622.34 485.02
  Q 619.71 485.14 617.60 483.74
  Q 616.07 482.73 614.60 480.15
  Q 612.18 475.92 609.94 470.56
  Q 609.49 469.51 608.53 469.67
  A 0.68 0.62 86.0 0 0 608.02 470.32
  Z
  M 613.25 454.28
  Q 610.88 454.02 608.49 454.41
  A 0.66 0.58 -5.2 0 0 607.94 454.99
  L 607.81 461.83
  A 0.94 0.92 -1.7 0 0 608.81 462.76
  L 615.69 462.26
  A 1.33 1.11 -67.6 0 0 616.53 461.82
  Q 619.09 458.89 617.24 456.33
  Q 615.98 454.58 613.25 454.28
  Z"
/>
<path fill="#000000" d="
  M 646.04 455.07
  Q 645.57 466.58 645.71 478.11
  Q 645.77 482.83 645.76 482.88
  Q 645.03 485.69 639.96 484.77
  Q 638.07 484.42 638.07 482.47
  L 638.19 455.31
  A 0.59 0.50 -89.5 0 0 637.70 454.72
  L 631.92 454.57
  A 1.95 1.64 0.9 0 1 630.02 452.92
  L 630.04 447.93
  A 0.98 0.94 0.3 0 1 631.02 447.00
  L 652.22 447.00
  A 1.72 1.64 -0.3 0 1 653.94 448.62
  L 654.00 452.52
  Q 654.03 454.48 651.94 454.50
  L 646.57 454.55
  A 0.54 0.53 -88.9 0 0 646.04 455.07
  Z"
/>
<path fill="#000000" d="
  M 674.48 471.34
  Q 671.25 469.76 667.91 468.44
  Q 662.92 466.47 661.54 465.30
  Q 657.06 461.49 659.04 454.63
  Q 660.79 448.54 667.01 447.30
  Q 670.72 446.56 674.26 447.27
  Q 678.12 448.04 680.53 450.45
  Q 683.49 453.40 683.73 457.88
  Q 683.84 460.00 681.77 459.99
  L 678.04 459.99
  A 2.18 2.04 80.1 0 1 676.09 458.52
  Q 674.63 454.20 671.06 454.19
  Q 667.81 454.18 666.67 456.10
  Q 664.59 459.58 668.32 461.17
  Q 671.40 462.47 674.54 463.65
  Q 678.98 465.33 680.46 466.67
  Q 684.44 470.24 683.05 476.51
  Q 681.63 482.90 675.75 484.50
  Q 672.72 485.32 669.21 485.01
  Q 665.59 484.68 663.07 483.09
  Q 658.01 479.92 657.76 473.25
  A 1.71 1.69 -7.0 0 1 659.13 471.52
  Q 662.92 470.77 665.02 472.03
  A 1.10 0.91 -81.0 0 1 665.48 472.81
  Q 666.02 477.32 669.94 477.94
  Q 672.54 478.36 674.32 476.96
  Q 676.48 475.27 675.14 472.02
  A 1.42 1.27 3.8 0 0 674.48 471.34
  Z"
/>
<path fill="#000000" d="
  M 205.69 597.44
  Q 217.78 585.84 234.48 581.91
  Q 253.53 577.42 272.56 582.01
  Q 293.44 587.04 309.48 602.08
  A 1.28 1.27 -49.3 0 1 309.60 603.81
  L 289.15 629.45
  Q 287.64 631.34 285.67 629.97
  Q 279.04 625.37 271.84 622.39
  Q 263.54 618.95 253.00 619.00
  Q 246.58 619.03 242.04 621.26
  Q 235.52 624.47 236.50 632.00
  Q 237.13 636.74 241.36 638.96
  Q 243.81 640.25 246.36 641.32
  Q 264.98 649.10 283.75 656.50
  Q 290.80 659.28 298.07 664.92
  Q 304.70 670.06 308.83 677.04
  Q 312.59 683.40 314.19 692.00
  Q 317.59 710.29 309.09 726.29
  Q 304.42 735.08 296.61 741.75
  Q 287.11 749.86 275.06 753.56
  Q 269.26 755.35 262.42 756.42
  Q 255.99 757.43 249.52 757.38
  Q 213.72 757.09 184.97 734.22
  Q 183.34 732.92 184.67 731.33
  L 208.45 702.92
  A 1.72 1.70 38.8 0 1 210.81 702.68
  Q 221.01 710.66 233.12 715.23
  Q 245.54 719.92 258.00 717.50
  Q 260.33 717.05 262.77 715.74
  Q 265.19 714.45 266.60 712.53
  Q 270.24 707.57 267.50 701.75
  Q 265.90 698.36 261.19 696.31
  Q 242.92 688.34 224.53 680.67
  Q 210.08 674.65 200.06 663.19
  Q 197.29 660.01 195.14 656.10
  Q 193.22 652.61 191.93 648.16
  Q 183.44 618.77 205.69 597.44
  Z"
/>
<path fill="#000000" d="
  M 440.92 754.06
  Q 392.71 753.96 344.24 754.00
  A 0.80 0.80 -0.2 0 1 343.44 753.20
  L 343.56 582.80
  A 0.55 0.55 -0.5 0 1 344.10 582.25
  Q 366.00 581.63 388.02 582.25
  A 0.95 0.94 0.9 0 1 388.94 583.19
  L 389.00 715.21
  A 1.54 1.54 0.0 0 0 390.54 716.75
  L 452.10 716.75
  A 1.40 1.40 0.0 0 1 453.50 718.15
  L 453.50 753.04
  A 0.79 0.78 -5.3 0 1 452.85 753.81
  Q 449.40 754.42 445.94 754.27
  Q 441.01 754.06 440.92 754.06
  Z"
/>
<path fill="#000000" d="
  M 461.37 754.86
  Q 458.55 754.77 459.37 752.06
  L 510.39 584.37
  A 1.92 1.92 -81.7 0 1 512.23 583.00
  L 564.30 583.00
  A 1.89 1.89 81.5 0 1 566.11 584.34
  L 617.44 753.08
  A 1.50 1.49 -9.1 0 1 616.04 755.01
  Q 595.95 755.42 575.42 755.26
  Q 575.31 755.26 573.59 755.35
  Q 570.58 755.50 569.52 753.22
  Q 569.37 752.91 568.55 749.25
  Q 565.26 734.47 561.75 719.74
  A 1.86 1.85 83.3 0 0 559.95 718.31
  L 514.48 718.31
  A 1.39 1.37 -83.4 0 0 513.14 719.39
  L 505.25 753.55
  A 1.90 1.88 5.9 0 1 503.44 755.01
  Q 481.97 755.53 461.37 754.86
  Z
  M 523.14 682.30
  L 551.26 682.49
  Q 553.24 682.50 552.77 680.55
  Q 546.31 654.15 540.06 626.69
  Q 538.71 620.75 537.62 617.78
  A 0.86 0.57 74.5 0 0 536.95 617.20
  Q 536.59 617.22 536.49 617.70
  Q 529.93 649.69 521.96 680.74
  A 1.25 1.23 -82.5 0 0 523.14 682.30
  Z"
/>
<path fill="#000000" d="
  M 671.92 646.79
  Q 671.34 645.01 670.91 646.83
  Q 670.34 649.20 670.54 650.94
  Q 672.32 666.39 674.12 681.84
  Q 675.26 691.63 675.36 701.24
  Q 675.63 727.22 675.56 752.95
  A 1.06 1.05 0.0 0 1 674.50 754.00
  L 635.69 754.00
  A 0.69 0.69 0.0 0 1 635.00 753.31
  L 635.00 583.75
  A 0.69 0.68 -90.0 0 1 635.68 583.06
  L 682.41 583.00
  A 1.50 1.49 79.9 0 1 683.81 583.98
  Q 696.23 617.36 708.25 650.50
  Q 711.57 659.66 717.86 681.50
  Q 718.03 682.10 718.33 682.40
  Q 719.15 683.21 719.56 681.81
  Q 722.13 673.22 724.72 664.64
  Q 727.31 656.05 730.24 647.60
  Q 741.11 616.28 752.53 584.46
  A 2.22 2.21 -80.0 0 1 754.61 583.00
  L 800.09 583.00
  A 0.91 0.91 0.0 0 1 801.00 583.91
  L 801.00 753.25
  A 0.69 0.68 -90.0 0 1 800.32 753.94
  L 761.20 753.94
  A 0.95 0.95 0.0 0 1 760.25 752.99
  Q 760.25 730.25 760.23 708.00
  Q 760.22 692.95 761.98 678.00
  Q 762.87 670.41 763.62 662.81
  Q 763.69 662.15 764.78 653.85
  Q 765.37 649.36 765.43 644.81
  A 0.82 0.55 -84.4 0 0 765.02 644.05
  Q 764.54 643.91 764.25 644.75
  Q 748.10 692.08 730.52 738.25
  Q 729.86 740.00 728.06 739.98
  L 706.00 739.76
  A 0.78 0.73 79.1 0 1 705.30 739.25
  Q 694.21 710.20 683.98 681.92
  Q 677.53 664.10 671.92 646.79
  Z"
/>
<path fill="#000000" d="
  M 969.99 644.13
  Q 969.40 644.06 969.06 645.06
  Q 952.82 692.42 935.18 738.54
  A 2.25 2.25 -79.7 0 1 933.07 740.00
  L 911.50 740.00
  A 1.42 1.42 79.0 0 1 910.18 739.11
  Q 892.08 693.62 876.85 646.72
  Q 876.48 645.57 875.83 646.13
  A 1.31 0.86 78.5 0 0 875.48 647.00
  Q 875.34 650.63 875.77 654.25
  Q 877.49 668.65 879.13 683.06
  Q 880.27 693.08 880.38 703.01
  Q 880.64 727.46 880.49 752.85
  A 1.15 1.15 0.0 0 1 879.34 754.00
  L 840.63 754.00
  A 0.88 0.88 0.0 0 1 839.75 753.12
  L 839.75 584.01
  A 0.95 0.95 0.0 0 1 840.70 583.06
  L 887.27 583.00
  A 1.41 1.41 79.8 0 1 888.59 583.92
  Q 895.77 602.99 902.47 621.41
  Q 902.51 621.50 908.80 638.39
  Q 914.92 654.80 919.31 670.19
  Q 921.51 677.87 922.90 681.96
  A 0.74 0.58 76.3 0 0 923.56 682.48
  Q 924.24 682.39 924.50 681.50
  Q 925.85 676.83 929.64 664.33
  Q 932.25 655.73 935.18 647.28
  Q 945.67 617.11 956.46 587.05
  Q 956.49 586.97 956.92 585.42
  Q 957.66 582.69 960.65 582.89
  Q 962.25 583.00 962.35 583.00
  Q 983.80 583.00 1004.91 583.00
  A 1.09 1.09 0.0 0 1 1006.00 584.09
  L 1006.00 753.25
  A 0.69 0.68 -90.0 0 1 1005.32 753.94
  L 965.74 754.00
  A 0.73 0.73 3.5 0 1 965.01 753.18
  Q 965.40 749.89 965.37 746.50
  Q 965.12 723.50 965.37 700.51
  Q 965.47 690.85 966.61 680.55
  Q 968.57 662.69 970.39 644.81
  A 0.64 0.47 -84.3 0 0 969.99 644.13
  Z"
/>
</svg>
